<svg width="301" height="190" viewBox="0 0 301 190" fill="none" xmlns="http://www.w3.org/2000/svg">
<path d="M262.089 23.5478C262.108 23.5457 262.127 23.5436 262.146 23.5474C263.525 23.5456 264.871 23.5839 266.153 23.6657C266.407 23.6847 266.601 23.8915 266.579 24.1412C266.557 24.3849 266.34 24.5726 266.079 24.5543C264.823 24.4756 263.496 24.4352 262.142 24.4401C261.884 24.4396 261.678 24.2402 261.682 23.9986C261.68 23.7637 261.859 23.5743 262.089 23.5478ZM270.004 24.0732C270.047 24.0682 270.085 24.0698 270.13 24.0767C271.488 24.2763 272.81 24.5404 274.062 24.8547C274.309 24.9168 274.456 25.1591 274.389 25.3959C274.322 25.6327 274.068 25.7764 273.822 25.7143C272.602 25.4084 271.313 25.1526 269.986 24.9554C269.736 24.9178 269.565 24.6903 269.607 24.4504C269.634 24.2483 269.805 24.096 270.004 24.0732ZM277.644 26.0347C277.718 26.0261 277.795 26.0354 277.874 26.0625C279.139 26.5501 280.352 27.1222 281.477 27.7525C281.699 27.8777 281.768 28.1471 281.635 28.3613C281.503 28.5755 281.221 28.6441 280.999 28.5189C279.908 27.9087 278.735 27.3562 277.515 26.8815C277.278 26.7882 277.166 26.5297 277.265 26.3013C277.336 26.1544 277.482 26.0533 277.644 26.0347ZM284.429 29.861C284.547 29.8474 284.677 29.8807 284.774 29.9599C285.8 30.7705 286.774 31.6714 287.661 32.6367C287.827 32.8225 287.809 33.1019 287.62 33.2623C287.424 33.4234 287.133 33.4087 286.967 33.2288C286.11 32.2964 285.177 31.4269 284.187 30.6485C283.992 30.49 283.96 30.2163 284.127 30.0223C284.204 29.929 284.317 29.8738 284.429 29.861ZM289.637 35.5083C289.805 35.489 289.983 35.559 290.082 35.7044C290.783 36.7513 291.436 37.8819 292.015 39.0694C292.122 39.2922 292.021 39.5571 291.794 39.6615C291.567 39.766 291.285 39.6718 291.178 39.455C290.616 38.3018 289.985 37.2047 289.301 36.1921C289.163 35.9848 289.226 35.7123 289.444 35.5788C289.502 35.5359 289.569 35.5162 289.637 35.5083ZM293.017 42.3365C293.228 42.3122 293.437 42.4328 293.504 42.6301C293.917 43.8005 294.287 45.0361 294.599 46.3145C294.658 46.5549 294.504 46.7958 294.252 46.8548C294.001 46.9138 293.751 46.7677 293.692 46.5273C293.383 45.2786 293.022 44.0661 292.618 42.9188C292.535 42.6873 292.67 42.4367 292.912 42.3545C292.949 42.3503 292.98 42.3407 293.017 42.3365ZM294.86 49.7089C295.103 49.6811 295.329 49.8419 295.369 50.0785C295.502 50.9012 295.62 51.7558 295.72 52.6185C295.765 53.0052 295.805 53.4046 295.845 53.8039L295.853 53.8753C295.882 54.1192 295.705 54.3325 295.437 54.3632C295.182 54.3865 294.954 54.2138 294.932 53.9691L294.923 53.8918C294.884 53.4984 294.845 53.1109 294.801 52.7302C294.702 51.8794 294.586 51.0367 294.454 50.2258C294.413 49.9833 294.588 49.7523 294.842 49.717C294.848 49.7104 294.854 49.7096 294.86 49.7089ZM295.554 57.2678C295.566 57.2664 295.585 57.2642 295.597 57.2628C295.855 57.2573 296.066 57.4501 296.07 57.6969C296.093 58.9903 296.061 60.2842 295.978 61.5296C295.963 61.7726 295.739 61.9611 295.485 61.948C295.232 61.935 295.037 61.7222 295.053 61.4792C295.138 60.2576 295.167 58.9882 295.146 57.7186C295.139 57.4903 295.324 57.2942 295.554 57.2678ZM295.027 64.8403C295.071 64.8353 295.108 64.837 295.153 64.8439C295.403 64.8814 295.581 65.1082 295.539 65.3481C295.329 66.6264 295.047 67.8946 294.716 69.1143C294.649 69.3511 294.395 69.4949 294.149 69.4328C293.902 69.3707 293.754 69.1284 293.821 68.8916C294.15 67.7024 294.422 66.4653 294.63 65.2175C294.657 65.0155 294.828 64.8632 295.027 64.8403ZM135.248 90.1423C136.585 89.9947 137.933 89.894 139.252 89.863C139.51 89.8575 139.721 90.0502 139.724 90.297C139.728 90.5438 139.525 90.748 139.267 90.7535C137.974 90.7876 136.656 90.8788 135.344 91.0295C135.089 91.0588 134.861 90.886 134.833 90.6421C134.81 90.3915 134.993 90.1716 135.248 90.1423ZM131.325 90.7499C131.561 90.7227 131.78 90.8724 131.832 91.1016C131.879 91.3434 131.717 91.579 131.465 91.6261C130.196 91.8744 128.909 92.1791 127.639 92.5299C127.389 92.6009 127.14 92.4607 127.069 92.2277C126.998 91.9948 127.145 91.7427 127.39 91.6784C128.683 91.3188 129.995 91.0112 131.288 90.7541C131.294 90.7534 131.307 90.752 131.325 90.7499ZM292.994 72.182C293.068 72.1735 293.139 72.1835 293.21 72.2053C293.447 72.2927 293.565 72.5504 293.478 72.7774C292.994 73.9786 292.439 75.1638 291.827 76.2952C291.707 76.5139 291.427 76.6003 291.2 76.4878C290.973 76.3752 290.885 76.108 291.005 75.8892C291.607 74.7831 292.148 73.6357 292.617 72.4664C292.674 72.3032 292.826 72.2013 292.994 72.182ZM143.177 89.9303C143.208 89.9268 143.233 89.9239 143.265 89.9263C143.982 89.9705 144.713 90.0312 145.428 90.1178C146.035 90.1867 146.642 90.2676 147.245 90.3611C147.495 90.3987 147.666 90.6262 147.626 90.8721C147.584 91.112 147.345 91.2781 147.095 91.2405C146.506 91.1515 145.91 91.0692 145.317 91.0047C144.615 90.9227 143.903 90.8658 143.199 90.8202C142.945 90.8071 142.75 90.5944 142.773 90.3507C142.784 90.1262 142.96 89.9553 143.177 89.9303ZM123.685 92.8638C123.89 92.8402 124.099 92.9549 124.172 93.1515C124.262 93.3823 124.134 93.6382 123.898 93.7255C122.683 94.1606 121.455 94.6514 120.251 95.1817C120.017 95.2869 119.741 95.186 119.64 94.9626C119.532 94.7398 119.64 94.4742 119.874 94.375C121.096 93.8366 122.342 93.3377 123.582 92.8938C123.611 92.8783 123.648 92.8681 123.685 92.8638ZM151.002 91.0989C151.052 91.0932 151.109 91.0927 151.161 91.1049C152.37 91.3759 153.629 91.6954 155.014 92.0788C155.262 92.1468 155.397 92.3905 155.324 92.628C155.25 92.8655 154.995 92.9974 154.748 92.9293C153.375 92.5505 152.129 92.2355 150.939 91.9683C150.694 91.9121 150.54 91.6706 150.6 91.4345C150.654 91.2475 150.816 91.1204 151.002 91.0989ZM158.624 93.1712C158.686 93.164 158.756 93.1681 158.821 93.1907C159.722 93.4669 160.624 93.7491 161.525 94.0254L162.59 94.3552C162.832 94.4299 162.962 94.6803 162.881 94.9125C162.801 95.1448 162.539 95.2714 162.297 95.1967L161.232 94.8669C160.331 94.5847 159.429 94.3085 158.528 94.0322C158.287 93.9575 158.151 93.7078 158.231 93.4756C158.294 93.3116 158.45 93.1912 158.624 93.1712ZM289.329 78.9275C289.435 78.9153 289.545 78.9389 289.64 79.0003C289.851 79.1388 289.908 79.4096 289.761 79.6133C289.021 80.6691 288.202 81.7036 287.329 82.6963C287.162 82.8843 286.869 82.9119 286.674 82.7535C286.479 82.595 286.453 82.3146 286.62 82.1266C287.472 81.1606 288.268 80.1527 288.993 79.1229C289.074 79.0051 289.199 78.9425 289.329 78.9275ZM166.172 95.4809C166.234 95.4738 166.297 95.4785 166.362 95.4952C167.621 95.869 168.885 96.2302 170.148 96.5854C170.395 96.6535 170.531 96.9031 170.457 97.1347C170.384 97.3722 170.122 97.5048 169.881 97.436C168.612 97.0815 167.341 96.715 166.083 96.3412C165.841 96.2665 165.706 96.0228 165.779 95.7853C165.835 95.6221 165.992 95.5016 166.172 95.4809ZM284.197 84.7503C284.334 84.7346 284.478 84.7784 284.584 84.8807C284.762 85.0592 284.757 85.3371 284.569 85.5094C283.625 86.3836 282.603 87.2426 281.544 88.0515C281.342 88.2074 281.055 88.1741 280.894 87.9816C280.733 87.7891 280.77 87.5135 280.973 87.3576C282.014 86.5627 283.007 85.7251 283.934 84.871C284.008 84.8022 284.104 84.761 284.197 84.7503ZM173.774 97.6095C173.83 97.6031 173.894 97.6079 173.952 97.6193C175.225 97.9493 176.497 98.2734 177.773 98.5848C178.02 98.6469 178.168 98.8892 178.107 99.1253C178.04 99.3621 177.786 99.5058 177.54 99.4497C176.257 99.1389 174.979 98.8156 173.699 98.4803C173.453 98.4182 173.31 98.1693 173.378 97.9385C173.432 97.7514 173.594 97.6303 173.774 97.6095ZM181.46 99.4754C181.51 99.4697 181.566 99.4692 181.618 99.4814C182.905 99.7676 184.19 100.042 185.48 100.304C185.731 100.353 185.884 100.589 185.83 100.83C185.776 101.071 185.53 101.226 185.278 101.171C183.982 100.91 182.69 100.63 181.397 100.345C181.151 100.289 180.998 100.053 181.058 99.811C181.106 99.6247 181.274 99.4969 181.46 99.4754ZM277.999 89.5201C278.167 89.5008 278.339 89.5715 278.437 89.7109C278.58 89.9115 278.517 90.19 278.307 90.3287C277.223 91.032 276.074 91.7127 274.89 92.3613C274.664 92.4836 274.385 92.4073 274.26 92.1986C274.134 91.9839 274.216 91.7152 274.435 91.5936C275.596 90.9598 276.727 90.2872 277.794 89.5979C277.858 89.5544 277.924 89.5287 277.999 89.5201ZM189.212 101.044C189.255 101.039 189.306 101.04 189.351 101.046C190.657 101.282 191.967 101.505 193.244 101.708C193.494 101.746 193.666 101.979 193.618 102.22C193.577 102.46 193.338 102.626 193.081 102.583C191.798 102.381 190.48 102.153 189.168 101.917C188.918 101.874 188.752 101.64 188.806 101.398C188.847 101.213 189.019 101.066 189.212 101.044ZM271.089 93.3165C271.282 93.2944 271.469 93.3874 271.559 93.564C271.673 93.7861 271.571 94.0509 271.344 94.1554C270.173 94.706 268.95 95.2384 267.693 95.7447C267.458 95.838 267.188 95.7364 267.086 95.5069C266.991 95.2828 267.099 95.0231 267.339 94.9231C268.579 94.425 269.79 93.894 270.943 93.3575C270.991 93.3399 271.04 93.3223 271.089 93.3165ZM197.039 102.285C197.076 102.281 197.121 102.282 197.159 102.283C198.47 102.458 199.786 102.62 201.081 102.761C201.336 102.792 201.512 103.007 201.484 103.251C201.456 103.496 201.224 103.673 200.969 103.642C199.667 103.496 198.339 103.335 197.021 103.161C196.772 103.13 196.594 102.903 196.629 102.658C196.663 102.461 196.834 102.309 197.039 102.285ZM263.75 96.2882C263.962 96.2639 264.164 96.3793 264.237 96.5759C264.321 96.8074 264.199 97.0626 263.957 97.1447C262.734 97.5686 261.453 97.987 260.157 98.3772C259.914 98.4533 259.653 98.3205 259.576 98.0883C259.498 97.856 259.639 97.6047 259.882 97.5285C261.166 97.1398 262.429 96.7295 263.64 96.3129C263.683 96.302 263.719 96.2917 263.75 96.2882ZM204.918 103.152C204.949 103.149 204.98 103.151 205.012 103.153C206.328 103.261 207.656 103.356 208.955 103.43C209.209 103.443 209.403 103.655 209.387 103.898C209.371 104.141 209.148 104.33 208.894 104.317C207.588 104.244 206.249 104.151 204.926 104.037C204.672 104.018 204.482 103.799 204.511 103.555C204.53 103.341 204.706 103.176 204.918 103.152ZM256.15 98.5844C256.374 98.5587 256.591 98.6905 256.648 98.9071C256.712 99.1408 256.565 99.3869 256.32 99.4511C255.067 99.7761 253.768 100.094 252.443 100.391C252.19 100.444 251.947 100.297 251.888 100.063C251.829 99.8226 251.99 99.587 252.236 99.5287C253.549 99.2331 254.841 98.9158 256.082 98.5923C256.107 98.5894 256.126 98.5873 256.15 98.5844ZM212.842 103.598C212.866 103.595 212.885 103.593 212.911 103.596C214.231 103.631 215.562 103.653 216.865 103.648C217.124 103.648 217.329 103.848 217.326 104.089C217.323 104.337 217.112 104.53 216.861 104.535C215.545 104.535 214.202 104.521 212.875 104.48C212.616 104.474 212.422 104.267 212.431 104.025C212.437 103.801 212.618 103.624 212.842 103.598ZM248.399 100.337C248.636 100.31 248.861 100.459 248.906 100.689C248.953 100.931 248.791 101.166 248.539 101.214C247.27 101.462 245.95 101.698 244.616 101.924C244.369 101.97 244.123 101.805 244.083 101.563C244.042 101.32 244.21 101.09 244.464 101.049C245.792 100.824 247.106 100.588 248.362 100.342C248.374 100.34 248.387 100.339 248.399 100.337ZM220.782 103.584C220.794 103.582 220.806 103.581 220.819 103.579C222.143 103.536 223.471 103.474 224.77 103.385C225.026 103.367 225.243 103.553 225.259 103.799C225.275 104.044 225.086 104.259 224.823 104.271C223.51 104.355 222.17 104.425 220.839 104.463C220.583 104.475 220.371 104.282 220.368 104.035C220.36 103.807 220.545 103.611 220.782 103.584ZM240.554 101.661C240.803 101.632 241.03 101.799 241.064 102.036C241.099 102.28 240.923 102.505 240.669 102.54C239.319 102.737 237.998 102.913 236.719 103.072L236.713 103.073C236.458 103.102 236.23 102.93 236.202 102.692C236.174 102.448 236.35 102.229 236.604 102.193C237.877 102.035 239.192 101.86 240.536 101.663C240.542 101.662 240.548 101.662 240.554 101.661ZM228.707 103.065L228.713 103.064C229.952 102.94 231.272 102.806 232.659 102.659C232.914 102.629 233.143 102.808 233.171 103.052C233.199 103.296 233.017 103.516 232.762 103.545C231.369 103.699 230.043 103.834 228.804 103.952C228.548 103.975 228.326 103.802 228.298 103.558C228.275 103.307 228.458 103.093 228.707 103.065Z" fill="#BBBBBB"/>
<path d="M258.15 18.394L263.204 24.4397L227.744 34.8081L258.15 18.394Z" fill="#7A8BFA"/>
<path d="M227.744 34.81L258.151 18.3953L258.144 6.38561L227.744 34.81Z" fill="#BAC4FF"/>
<path d="M258.145 23.1704L263.204 24.4391L227.744 34.8075L258.145 23.1704Z" fill="#4352B5"/>
<path d="M227.744 34.808L258.144 23.1711L258.125 38.1891L227.744 34.808Z" fill="#BAC4FF"/>
<rect x="35" y="45" width="180" height="126" rx="10" fill="#E8ECFF"/>
<rect x="81" y="171" width="89" height="19" rx="9.5" fill="#E8ECFF"/>
<rect x="106" y="165" width="37" height="16" fill="#E8ECFF"/>
<rect x="110" y="30" width="70" height="30" rx="10" fill="#E8ECFF"/>
<circle cx="75" cy="174" r="13" fill="#E8ECFF"/>
<path d="M137.23 161.021H111.914V178.511H137.23V161.021Z" fill="#3F2F7C"/>
<path opacity="0.5" d="M137.23 161.021H111.914V167.361H137.23V161.021Z" fill="#3F2F7C"/>
<path d="M150.263 178.236H98.8807C97.2592 178.236 95.9414 179.56 95.9414 181.189C95.9414 182.818 97.254 184.137 98.8807 184.137H150.263C151.885 184.137 153.203 182.813 153.203 181.184C153.197 179.555 151.885 178.236 150.263 178.236Z" fill="#1E154A"/>
<path opacity="0.5" d="M153.203 181.189C153.203 182.818 151.885 184.137 150.263 184.137H98.8807C97.2592 184.137 95.9414 182.813 95.9414 181.189C95.9414 180.941 95.9723 180.703 96.0341 180.476C96.3481 181.763 97.5063 182.715 98.8807 182.715H150.263C151.638 182.715 152.796 181.763 153.11 180.476C153.172 180.698 153.203 180.941 153.203 181.189Z" fill="#1E154A"/>
<path d="M45.3612 163.457C44.3677 163.457 43.5596 162.645 43.5596 161.647V56.5512C43.5596 55.5531 44.3677 54.7412 45.3612 54.7412H203.772C204.765 54.7412 205.573 55.5531 205.573 56.5512V161.652C205.573 162.65 204.765 163.462 203.772 163.462H45.3612V163.457Z" fill="white"/>
<path d="M203.776 56.0321C204.06 56.0321 204.291 56.2648 204.291 56.5492V161.65C204.291 161.935 204.06 162.167 203.776 162.167H45.361C45.0779 162.167 44.8462 161.935 44.8462 161.65V56.5492C44.8462 56.2648 45.0779 56.0321 45.361 56.0321H203.776ZM203.776 53.4463H45.361C43.6571 53.4463 42.2725 54.8374 42.2725 56.5492V161.65C42.2725 163.362 43.6571 164.753 45.361 164.753H203.771C205.475 164.753 206.86 163.362 206.86 161.65V56.5492C206.865 54.8323 205.48 53.4463 203.776 53.4463Z" fill="#3F2F7C"/>
<path d="M206.865 161.437V151.161H42.2725V161.437C42.2725 163.376 43.8322 164.938 45.7573 164.938H203.375C205.3 164.938 206.865 163.376 206.865 161.437Z" fill="#3F2F7C"/>
<path d="M156.079 139.143H95.1213C92.3355 139.143 90.082 136.825 90.082 133.971C90.082 131.112 92.3407 128.8 95.1213 128.8H156.079C158.865 128.8 161.118 131.118 161.118 133.971C161.118 136.825 158.859 139.143 156.079 139.143Z" fill="#E8ECFF"/>
<path d="M97.9425 135.056C97.2167 135.056 96.6299 134.467 96.6299 133.738C96.6299 133.008 97.2167 132.419 97.9425 132.419C98.6683 132.419 99.2551 133.008 99.2551 133.738C99.2551 134.467 98.6683 135.056 97.9425 135.056ZM103.152 133.738C103.152 133.008 102.565 132.419 101.839 132.419C101.113 132.419 100.527 133.008 100.527 133.738C100.527 134.467 101.113 135.056 101.839 135.056C102.565 135.056 103.152 134.467 103.152 133.738ZM107.049 133.738C107.049 133.008 106.462 132.419 105.736 132.419C105.01 132.419 104.423 133.008 104.423 133.738C104.423 134.467 105.01 135.056 105.736 135.056C106.462 135.056 107.049 134.467 107.049 133.738ZM110.945 133.738C110.945 133.008 110.358 132.419 109.633 132.419C108.907 132.419 108.32 133.008 108.32 133.738C108.32 134.467 108.907 135.056 109.633 135.056C110.358 135.056 110.945 134.467 110.945 133.738ZM114.847 133.738C114.847 133.008 114.26 132.419 113.534 132.419C112.809 132.419 112.222 133.008 112.222 133.738C112.222 134.467 112.809 135.056 113.534 135.056C114.26 135.056 114.847 134.467 114.847 133.738ZM118.744 133.738C118.744 133.008 118.157 132.419 117.431 132.419C116.705 132.419 116.118 133.008 116.118 133.738C116.118 134.467 116.705 135.056 117.431 135.056C118.157 135.056 118.744 134.467 118.744 133.738ZM122.64 133.738C122.64 133.008 122.054 132.419 121.328 132.419C120.602 132.419 120.015 133.008 120.015 133.738C120.015 134.467 120.602 135.056 121.328 135.056C122.054 135.056 122.64 134.467 122.64 133.738Z" fill="#00489A"/>
<g opacity="0.09">
<path d="M169.358 128.071C167.577 128.071 166.129 129.423 166.129 131.085V133.984H172.588V131.085C172.588 129.424 171.139 128.071 169.358 128.071ZM167.196 132.988V131.086C167.196 129.973 168.166 129.068 169.358 129.068C170.551 129.068 171.521 129.973 171.521 131.086V132.988H167.196Z" fill="black"/>
<path opacity="0.4" d="M169.359 128.668C167.936 128.668 166.78 129.748 166.78 131.075V133.389H171.937V131.075C171.937 129.748 170.781 128.668 169.359 128.668ZM171.521 132.99H167.197V131.088C167.197 129.975 168.166 129.07 169.359 129.07C170.551 129.07 171.521 129.975 171.521 131.088V132.99Z" fill="black"/>
<path d="M172.642 138.284H166.076C165.638 138.284 165.282 137.952 165.282 137.543V132.954C165.282 132.544 165.638 132.213 166.076 132.213H172.642C173.08 132.213 173.435 132.544 173.435 132.954V137.543C173.434 137.952 173.079 138.284 172.642 138.284Z" fill="black"/>
<path d="M170.544 134.83C170.544 134.219 170.014 133.724 169.358 133.724C168.703 133.724 168.173 134.219 168.173 134.83C168.173 135.257 168.433 135.627 168.812 135.812V137.008H169.902V135.812C170.284 135.627 170.544 135.257 170.544 134.83Z" fill="black"/>
<path opacity="0.4" d="M172.655 132.213H170.697C170.27 133.453 169.604 134.626 168.757 135.654C167.969 136.609 166.73 137.821 165.326 137.795C165.433 138.079 165.72 138.282 166.06 138.282H172.655C173.085 138.282 173.434 137.957 173.434 137.556V132.94C173.434 132.539 173.085 132.213 172.655 132.213Z" fill="black"/>
</g>
<path d="M168.797 128.071C167.016 128.071 165.567 129.423 165.567 131.085V133.984H172.026V131.085C172.026 129.424 170.578 128.071 168.797 128.071ZM166.634 132.988V131.086C166.634 129.973 167.604 129.068 168.797 129.068C169.989 129.068 170.959 129.973 170.959 131.086V132.988H166.634Z" fill="#F9714E"/>
<path opacity="0.4" d="M168.797 128.668C167.375 128.668 166.219 129.748 166.219 131.075V133.389H171.376V131.075C171.376 129.748 170.22 128.668 168.797 128.668ZM170.96 132.99H166.635V131.088C166.635 129.975 167.605 129.07 168.797 129.07C169.99 129.07 170.96 129.975 170.96 131.088V132.99Z" fill="#F9714E"/>
<path d="M172.08 138.284H165.515C165.076 138.284 164.721 137.952 164.721 137.543V132.954C164.721 132.544 165.076 132.213 165.515 132.213H172.08C172.519 132.213 172.874 132.544 172.874 132.954V137.543C172.873 137.952 172.517 138.284 172.08 138.284Z" fill="#FFB255"/>
<path d="M169.982 134.83C169.982 134.219 169.452 133.724 168.797 133.724C168.141 133.724 167.611 134.219 167.611 134.83C167.611 135.257 167.872 135.627 168.25 135.812V137.008H169.341V135.812C169.722 135.627 169.982 135.257 169.982 134.83Z" fill="#F9714E"/>
<path opacity="0.4" d="M172.094 132.213H170.136C169.709 133.453 169.043 134.626 168.197 135.654C167.409 136.609 166.169 137.821 164.766 137.795C164.872 138.079 165.16 138.282 165.5 138.282H172.094C172.525 138.282 172.873 137.957 172.873 137.556V132.94C172.873 132.539 172.525 132.213 172.094 132.213Z" fill="#FFB255"/>
<path opacity="0.09" d="M69.9163 165.286C67.9341 165.862 66.2555 167.164 65.1808 168.881H79.2541C78.1794 167.164 76.5008 165.862 74.5186 165.286V130.646H69.9163V131.212H65V135.383H69.9163V136.377H65V140.549H69.9163V165.286Z" fill="black"/>
<path d="M68.0147 135.378H73.9102V131.207H68.0147V135.378Z" fill="#FFB255"/>
<path d="M68.0147 140.54H73.9102V136.369H68.0147V140.54Z" fill="#FFB255"/>
<path opacity="0.5" d="M72.4075 135.378H73.9121V131.207H72.4075V135.378Z" fill="#FFC87C"/>
<path opacity="0.5" d="M72.4075 140.54H73.9121V136.369H72.4075V140.54Z" fill="#FFC87C"/>
<path d="M72.9328 166.883H77.5352V130.639H72.9328V166.883Z" fill="#FFB255"/>
<path opacity="0.5" d="M75.1606 168.132H75.3039C75.4574 168.132 75.5837 168.005 75.5837 167.851V132.173C75.5837 132.018 75.4574 131.892 75.3039 131.892H75.1606C75.0071 131.892 74.8809 132.018 74.8809 132.173V167.851C74.8809 168.008 75.0071 168.132 75.1606 168.132Z" fill="#FFC87C"/>
<path d="M66.9277 173.301C66.9277 168.701 70.6533 164.955 75.2318 164.955C79.8103 164.955 83.5393 168.698 83.5393 173.301C83.5393 177.901 79.8137 181.644 75.2318 181.644C70.6533 181.644 66.9277 177.901 66.9277 173.301ZM71.2094 173.301C71.2094 175.529 73.0142 177.342 75.2318 177.342C77.4494 177.342 79.2542 175.529 79.2542 173.301C79.2542 171.073 77.4494 169.26 75.2318 169.26C73.0142 169.26 71.2094 171.073 71.2094 173.301Z" fill="#FFB255"/>
<path opacity="0.5" d="M70.8174 173.302C70.8174 175.745 72.7962 177.737 75.2321 177.737C77.6681 177.737 79.6469 175.749 79.6469 173.302C79.6469 170.858 77.6681 168.866 75.2321 168.866C72.7962 168.866 70.8174 170.854 70.8174 173.302ZM71.2097 173.302C71.2097 171.074 73.0145 169.26 75.2321 169.26C77.4497 169.26 79.2545 171.074 79.2545 173.302C79.2545 175.529 77.4497 177.343 75.2321 177.343C73.0145 177.343 71.2097 175.529 71.2097 173.302Z" fill="#FFC87C"/>
<path d="M126.848 71.4492L100 92.0641L126.848 112.366L153.7 92.0641L126.848 71.4492Z" fill="#2A398A"/>
<path d="M149.505 113.042H103.801V68.6604C103.801 66.4547 105.573 64.6641 107.757 64.6641H149.505V113.042Z" fill="#7A8BFA"/>
<path d="M153.701 122.594H100.001V92.0625L153.701 122.594Z" fill="#4352B5"/>
<path d="M100.001 122.594H153.701V92.0625L100.001 122.594Z" fill="#4352B5"/>
<path d="M153.7 122.593L126.848 99.7861L100 122.593H153.7Z" fill="#2A398A"/>
<g opacity="0.09">
<path d="M153.857 116.148H112.108C109.925 116.148 108.152 114.357 108.152 112.152V66.3486H153.857V116.148Z" fill="black"/>
<path d="M109.539 66.3486V74.3835H108.153V70.345C108.153 69.2404 107.707 68.2448 106.994 67.5201C106.276 66.7954 105.291 66.3486 104.197 66.3486H109.539Z" fill="black"/>
<path d="M161.764 40.499H120.015C117.832 40.499 116.06 42.2896 116.06 44.4954V116.148H157.808C159.992 116.148 161.764 114.357 161.764 112.152V40.499Z" fill="black"/>
<path d="M117.446 116.147V108.112H116.06V112.151C116.06 113.255 115.615 114.251 114.901 114.976C114.183 115.7 113.198 116.147 112.104 116.147H117.446Z" fill="black"/>
<path d="M158.347 75.4532H119.642C119.454 75.4532 119.301 75.2984 119.301 75.1084C119.301 74.9185 119.454 74.7637 119.642 74.7637H158.347C158.535 74.7637 158.689 74.9185 158.689 75.1084C158.689 75.2984 158.535 75.4532 158.347 75.4532Z" fill="black"/>
<path d="M150.615 80.3985H119.574C119.386 80.3985 119.232 80.2437 119.232 80.0537C119.232 79.8638 119.386 79.709 119.574 79.709H150.615C150.803 79.709 150.956 79.8638 150.956 80.0537C150.956 80.2437 150.803 80.3985 150.615 80.3985Z" fill="black"/>
<path d="M154.742 70.5069H125.508C125.32 70.5069 125.167 70.3521 125.167 70.1621C125.167 69.9722 125.32 69.8174 125.508 69.8174H154.742C154.93 69.8174 155.083 69.9722 155.083 70.1621C155.083 70.3521 154.93 70.5069 154.742 70.5069Z" fill="black"/>
<path d="M140.297 85.3409H119.484C119.296 85.3409 119.143 85.1861 119.143 84.9961C119.143 84.8061 119.296 84.6514 119.484 84.6514H140.301C140.489 84.6514 140.642 84.8061 140.642 84.9961C140.639 85.1861 140.489 85.3409 140.297 85.3409Z" fill="black"/>
<path d="M157.604 85.3409H143.623C143.434 85.3409 143.281 85.1861 143.281 84.9961C143.281 84.8061 143.434 84.6514 143.623 84.6514H157.604C157.792 84.6514 157.945 84.8061 157.945 84.9961C157.945 85.1861 157.795 85.3409 157.604 85.3409Z" fill="black"/>
<path d="M158.347 90.2891H119.642C119.454 90.2891 119.301 90.1343 119.301 89.9444C119.301 89.7544 119.454 89.5996 119.642 89.5996H158.347C158.535 89.5996 158.689 89.7544 158.689 89.9444C158.689 90.1343 158.535 90.2891 158.347 90.2891Z" fill="black"/>
<path d="M154.592 95.2334H123.293C123.105 95.2334 122.952 95.0787 122.952 94.8887C122.952 94.6987 123.105 94.5439 123.293 94.5439H154.592C154.78 94.5439 154.933 94.6987 154.933 94.8887C154.933 95.0787 154.78 95.2334 154.592 95.2334Z" fill="black"/>
<path d="M169.537 67.7909H123.836V40.499H165.585C167.768 40.499 169.541 42.2896 169.541 44.4954V67.7909H169.537Z" fill="black"/>
<path d="M125.223 40.5V48.5349H123.837V44.4963C123.837 43.3917 123.391 42.3961 122.677 41.6715C121.96 40.9468 120.974 40.5 119.881 40.5H125.223Z" fill="black"/>
<path d="M141.813 112.061C140.772 112.617 139.71 112.828 138.439 112.828C135.329 112.828 132.696 110.531 132.696 106.854C132.696 102.911 135.405 99.502 139.612 99.502C142.91 99.502 145.128 101.838 145.128 105.036C145.128 107.906 143.537 109.591 141.754 109.591C140.994 109.591 140.295 109.074 140.35 107.906H140.274C139.612 109.035 138.738 109.591 137.603 109.591C136.502 109.591 135.555 108.691 135.555 107.178C135.555 104.803 137.411 102.64 140.047 102.64C140.862 102.64 141.583 102.812 142.074 103.041L141.43 106.506C141.144 107.963 141.374 108.631 141.997 108.649C142.965 108.666 144.045 107.364 144.045 105.145C144.045 102.369 142.394 100.378 139.459 100.378C136.37 100.378 133.772 102.847 133.772 106.735C133.772 109.933 135.837 111.903 138.644 111.903C139.723 111.903 140.73 111.674 141.506 111.234L141.813 112.061ZM140.772 103.79C140.584 103.734 140.26 103.657 139.824 103.657C138.156 103.657 136.812 105.247 136.812 107.104C136.812 107.945 137.23 108.561 138.062 108.561C139.163 108.561 140.166 107.143 140.375 105.957L140.772 103.79Z" fill="black"/>
</g>
<path d="M157.411 114.464H115.662C113.479 114.464 111.706 112.673 111.706 110.467V64.6641H157.411V114.464Z" fill="#F8F8F8"/>
<path d="M113.093 64.6641V72.699H111.707V68.6604C111.707 67.5558 111.261 66.5602 110.547 65.8355C109.83 65.1108 108.844 64.6641 107.751 64.6641H113.093Z" fill="#F8F8F8"/>
<path d="M165.318 38.8145H123.569C121.386 38.8145 119.613 40.6051 119.613 42.8108V114.463H161.362C163.545 114.463 165.318 112.673 165.318 110.467V38.8145Z" fill="#7A8BFA"/>
<path d="M121 114.464V106.429H119.614V110.467C119.614 111.572 119.168 112.567 118.454 113.292C117.737 114.017 116.752 114.464 115.658 114.464H121Z" fill="#7A8BFA"/>
<path d="M161.901 73.7676H123.196C123.008 73.7676 122.854 73.6128 122.854 73.4229C122.854 73.2329 123.008 73.0781 123.196 73.0781H161.901C162.089 73.0781 162.242 73.2329 162.242 73.4229C162.242 73.6128 162.089 73.7676 161.901 73.7676Z" fill="white"/>
<path d="M154.17 78.7129H123.129C122.941 78.7129 122.788 78.5582 122.788 78.3682C122.788 78.1782 122.941 78.0234 123.129 78.0234H154.17C154.358 78.0234 154.511 78.1782 154.511 78.3682C154.511 78.5582 154.358 78.7129 154.17 78.7129Z" fill="white"/>
<path d="M158.297 68.8223H129.064C128.876 68.8223 128.723 68.6675 128.723 68.4776C128.723 68.2876 128.876 68.1328 129.064 68.1328H158.297C158.485 68.1328 158.639 68.2876 158.639 68.4776C158.639 68.6675 158.485 68.8223 158.297 68.8223Z" fill="white"/>
<path d="M143.852 83.6553H123.039C122.85 83.6553 122.697 83.5005 122.697 83.3106C122.697 83.1206 122.85 82.9658 123.039 82.9658H143.855C144.043 82.9658 144.197 83.1206 144.197 83.3106C144.193 83.5005 144.043 83.6553 143.852 83.6553Z" fill="white"/>
<path d="M161.158 83.6553H147.177C146.989 83.6553 146.836 83.5005 146.836 83.3106C146.836 83.1206 146.989 82.9658 147.177 82.9658H161.158C161.346 82.9658 161.5 83.1206 161.5 83.3106C161.5 83.5005 161.35 83.6553 161.158 83.6553Z" fill="white"/>
<path d="M161.901 88.6016H123.196C123.008 88.6016 122.854 88.4468 122.854 88.2569C122.854 88.0669 123.008 87.9121 123.196 87.9121H161.901C162.089 87.9121 162.242 88.0669 162.242 88.2569C162.242 88.4468 162.089 88.6016 161.901 88.6016Z" fill="white"/>
<path d="M158.147 93.5479H126.848C126.66 93.5479 126.507 93.3931 126.507 93.2031C126.507 93.0132 126.66 92.8584 126.848 92.8584H158.147C158.335 92.8584 158.488 93.0132 158.488 93.2031C158.488 93.3931 158.335 93.5479 158.147 93.5479Z" fill="white"/>
<path d="M173.091 66.1064H127.39V38.8145H169.138C171.322 38.8145 173.094 40.6051 173.094 42.8108V66.1064H173.091Z" fill="white"/>
<path d="M128.776 38.8145V46.8493H127.39V42.8108C127.39 41.7062 126.945 40.7106 126.231 39.9859C125.513 39.2612 124.528 38.8145 123.435 38.8145H128.776Z" fill="white"/>
<path d="M145.367 110.376C144.325 110.932 143.263 111.143 141.992 111.143C138.883 111.143 136.25 108.846 136.25 105.17C136.25 101.226 138.959 97.8174 143.166 97.8174C146.463 97.8174 148.682 100.153 148.682 103.351C148.682 106.222 147.09 107.907 145.307 107.907C144.548 107.907 143.848 107.39 143.904 106.222H143.827C143.166 107.351 142.292 107.907 141.156 107.907C140.056 107.907 139.109 107.006 139.109 105.493C139.109 103.119 140.965 100.955 143.601 100.955C144.416 100.955 145.137 101.128 145.628 101.356L144.983 104.822C144.698 106.278 144.928 106.946 145.551 106.964C146.519 106.982 147.599 105.68 147.599 103.46C147.599 100.684 145.948 98.6933 143.013 98.6933C139.924 98.6933 137.326 101.163 137.326 105.05C137.326 108.248 139.391 110.218 142.198 110.218C143.277 110.218 144.284 109.989 145.06 109.55L145.367 110.376ZM144.325 102.106C144.137 102.049 143.813 101.972 143.378 101.972C141.71 101.972 140.366 103.562 140.366 105.42C140.366 106.26 140.784 106.876 141.616 106.876C142.717 106.876 143.719 105.458 143.928 104.273L144.325 102.106Z" fill="white"/>
</svg>
